<?xml version="1.0" encoding="UTF-8"?>
<svg id="Layer_1" xmlns="http://www.w3.org/2000/svg" version="1.1" viewBox="0 0 448.7 95.5">
  <!-- Generator: Adobe Illustrator 29.0.0, SVG Export Plug-In . SVG Version: 2.1.0 Build 186)  -->
  <defs>
    <style>
      .st0 {
        fill: #fff;
      }

      .st1 {
        fill: #f68a33;
      }

      .st2 {
        fill: #fdb913;
      }

      .st3 {
        fill: #f26531;
      }
    </style>
  </defs>
  <g>
    <path class="st1" d="M436.6,17l-9,24.3h-3.7l9.1-24.3h3.7-.1Z"/>
    <path class="st2" d="M446.4,17l-9,24.3h-3.7l9.1-24.3h3.7-.1Z"/>
    <g>
      <polygon class="st0" points="187 21.3 194.1 21.3 194.1 41.3 197.2 41.3 197.2 21.3 204.2 21.3 204.2 18.5 187 18.5 187 21.3"/>
      <path class="st0" d="M209.9,32.1c0-1.6.5-2.9,1.4-3.9s2-1.6,3.3-1.6,1.1,0,1.8.2h.3l.4-2.8h-.2c-.6-.2-1.3-.2-2-.2-1.1,0-2.1.3-3,.9-.8.5-1.5,1.2-2,2.1l-.3-2.7h-2.6v17.2h3v-9.2h0Z"/>
      <path class="st0" d="M226.3,23.8c-1,0-2,.1-3,.4s-1.9.6-2.8,1.1h-.2c0,.1,1,2.5,1,2.5h.2c1.7-1,3.3-1.4,4.6-1.4s2,.3,2.5.9.8,1.5.8,2.7v.8h-2.6c-5.5.2-8.3,2.1-8.3,5.6s.5,2.9,1.5,3.8c1,.9,2.3,1.3,4.1,1.3s2.3-.2,3.2-.6c.8-.3,1.6-1,2.3-1.9l.9,4.3v-2.1h1.9v-11.6c0-2-.5-3.5-1.5-4.4s-2.5-1.4-4.6-1.4h0ZM229.4,33.1v1.2c0,1.5-.4,2.6-1.3,3.4-.8.8-2,1.2-3.5,1.2s-1.7-.2-2.2-.7c-.5-.4-.7-1-.7-1.9s.4-1.9,1.2-2.4,2.3-.8,4.2-.9h2.3Z"/>
      <path class="st0" d="M245.4,23.8c-1.2,0-2.3.2-3.2.7-.8.4-1.5.9-2,1.6l-.4-2h-2.5v17.2h3v-9c0-2.1.4-3.6,1.2-4.5s2-1.3,3.6-1.3,2.2.3,2.7.9c.6.6.9,1.6.9,2.9v11.1h3v-11.1c0-2.2-.5-3.8-1.6-4.8-1.1-1-2.6-1.5-4.7-1.5v-.2Z"/>
      <path class="st0" d="M262.6,31.3c-1.5-.5-2.4-.9-2.9-1.2-.5-.3-.8-.5-1-.8s-.3-.6-.3-1c0-.6.3-1,.8-1.3.6-.4,1.4-.5,2.6-.5s2.8.3,4.5,1h.2l1.1-2.4h-.2c-1.7-.8-3.5-1.2-5.4-1.2s-3.6.4-4.7,1.2c-1.2.8-1.8,2-1.8,3.4s.2,1.5.5,2.1.9,1.1,1.5,1.6c.7.4,1.8.9,3.4,1.5s2.7,1.2,3.2,1.6c.5.4.8.9.8,1.5s-.3,1.3-.9,1.7c-.7.4-1.7.6-2.9.6s-1.7,0-2.6-.3-1.7-.5-2.5-.9l-.4-.2v2.9h.1c1.3.8,3.1,1.2,5.3,1.2s3.8-.4,5-1.3c1.2-.9,1.8-2.2,1.8-3.8s-.4-2.1-1.1-2.9c-.7-.8-2.1-1.5-4.1-2.2v-.3Z"/>
      <rect class="st0" x="270.2" y="31.3" width="8" height="2.8"/>
      <path class="st0" d="M297.2,31.5v5.1l-11.8-18h0c0-.1-3.3-.1-3.3-.1v22.8h2.9v-12.9c0-1.6,0-3.4-.2-5.3l11.9,18.2h3.3v-22.8h-2.9v13h.1Z"/>
      <path class="st0" d="M312.5,23.8c-2.5,0-4.4.8-5.9,2.4-1.4,1.6-2.1,3.8-2.1,6.5s.3,3.4,1,4.7c.6,1.3,1.6,2.4,2.8,3.1,1.2.7,2.6,1.1,4.1,1.1,2.5,0,4.5-.8,5.9-2.4,1.4-1.6,2.1-3.8,2.1-6.5s-.7-4.9-2.1-6.5-3.4-2.4-5.8-2.4ZM317.3,32.7c0,2.1-.4,3.7-1.2,4.7-.8,1-2,1.6-3.6,1.6s-2.8-.5-3.6-1.6c-.8-1.1-1.2-2.7-1.2-4.7s.4-3.7,1.2-4.7c.8-1,2-1.5,3.6-1.5s2.8.5,3.6,1.6c.8,1.1,1.2,2.6,1.2,4.7h0Z"/>
      <path class="st0" d="M332.4,23.8c-1.1,0-2.1.3-3,.9-.8.5-1.5,1.2-2,2.1l-.3-2.7h-2.6v17.2h3v-9.2c0-1.6.5-2.9,1.4-3.9s2-1.6,3.3-1.6,1.1,0,1.8.2h.3l.4-2.8h-.2c-.6-.2-1.3-.2-2.1-.2h0Z"/>
      <path class="st0" d="M337.6,36.2c0,3.6,1.7,5.4,5.1,5.4s.9,0,1.5,0c.6,0,1-.2,1.3-.3h.1v-2.5h-.3c-.2.2-.5.2-1,.3h-1.3c-.8,0-1.3-.2-1.8-.7-.4-.5-.7-1.2-.7-2.2v-9.6h4.8v-2.5h-4.8v-3.9h-1.9l-1.1,3.6-2.4,1.1v1.6h2.4v9.7h0Z"/>
      <path class="st0" d="M356.7,23.8c-1.2,0-2.3.2-3.3.7-.7.4-1.4.9-1.8,1.4v-8.9h-3v24.2h3v-9c0-2.1.4-3.6,1.1-4.5.8-.9,2-1.3,3.7-1.3s2.2.3,2.7.9c.6.6.9,1.6.9,2.9v11.1h3v-11.1c0-2.2-.5-3.8-1.6-4.8-1.1-1-2.7-1.5-4.8-1.5h0Z"/>
      <path class="st0" d="M374.5,23.8c-2.3,0-4.2.8-5.5,2.5-1.4,1.6-2,3.8-2,6.6s.7,4.9,2.2,6.4,3.5,2.3,6,2.3,2.1,0,2.9-.3c.8-.2,1.7-.5,2.6-.8h.2v-2.9h-.3c-1.7.9-3.5,1.3-5.2,1.3s-2.9-.5-3.8-1.4-1.3-2.3-1.4-4h11.5v-1.9c0-2.3-.6-4.2-1.9-5.6-1.3-1.4-3-2.1-5.2-2.1h-.1ZM370.2,30.8c.2-1.4.6-2.4,1.3-3.2.8-.8,1.7-1.2,3-1.2s2.2.4,2.9,1.2c.6.8,1,1.9,1,3.3h-8.2,0Z"/>
      <path class="st0" d="M393.4,23.8c-1.1,0-2.1.3-3,.9-.8.5-1.5,1.2-2,2.1l-.3-2.7h-2.6v17.2h3v-9.2c0-1.6.5-2.9,1.4-3.9s2-1.6,3.3-1.6,1.1,0,1.8.2h.3l.4-2.8h-.2c-.6-.2-1.3-.2-2-.2h0Z"/>
      <path class="st0" d="M411.3,25.3c-1.1-1-2.6-1.5-4.7-1.5s-2.3.2-3.2.7c-.8.4-1.5.9-2,1.6l-.4-2h-2.5v17.2h3v-9c0-2.1.4-3.6,1.2-4.5.8-.9,2-1.3,3.6-1.3s2.2.3,2.7.9c.6.6.9,1.6.9,2.9v11.1h3v-11.1c0-2.2-.5-3.8-1.6-4.8v-.2Z"/>
      <polygon class="st0" points="187 58.7 194.1 58.7 194.1 78.7 197.2 78.7 197.2 58.7 204.2 58.7 204.2 55.9 187 55.9 187 58.7"/>
      <path class="st0" d="M214.7,61.2c-1.1,0-2.1.3-3,.9-.8.5-1.5,1.2-2,2.1l-.3-2.7h-2.6v17.2h3v-9.2c0-1.6.5-2.9,1.4-3.9.9-1.1,2-1.6,3.3-1.6s1.1,0,1.8.2h.3l.4-2.8h-.2c-.6-.2-1.3-.2-2-.2h0Z"/>
      <path class="st0" d="M226.3,61.2c-1,0-2,0-3,.4-1,.3-1.9.6-2.8,1.1h-.2c0,0,1,2.5,1,2.5h.2c1.7-1,3.3-1.4,4.6-1.4s2,.3,2.5.9.8,1.5.8,2.7v.8h-2.6c-5.5.2-8.3,2.1-8.3,5.6s.5,2.9,1.5,3.8,2.3,1.3,4.1,1.3,2.3-.2,3.2-.6c.8-.4,1.6-1,2.3-1.9l.5,2.2h2.3v-11.6c0-2-.5-3.5-1.5-4.4s-2.5-1.4-4.6-1.4ZM229.4,70.5v1.3c0,1.5-.4,2.6-1.3,3.4-.8.8-2,1.2-3.5,1.2s-1.7-.2-2.2-.7c-.5-.4-.7-1-.7-1.9s.4-1.9,1.2-2.4,2.3-.8,4.2-.9h2.3Z"/>
      <path class="st0" d="M245.4,61.2c-1.2,0-2.3.2-3.2.7-.8.4-1.5.9-2,1.6l-.4-2h-2.5v17.2h3v-9c0-2.1.4-3.6,1.2-4.5s2-1.3,3.6-1.3,2.2.3,2.7.9c.6.6.9,1.6.9,2.9v11.1h3v-11.1c0-2.2-.5-3.8-1.6-4.8s-2.6-1.5-4.7-1.5v-.2Z"/>
      <path class="st0" d="M262.6,68.7c-1.4-.5-2.4-.9-2.9-1.2-.5-.3-.8-.5-1-.8s-.3-.6-.3-1c0-.6.3-1,.8-1.3.6-.3,1.4-.5,2.6-.5s2.8.3,4.5,1h.2l1.1-2.4h-.2c-1.7-.8-3.5-1.2-5.4-1.2s-3.6.4-4.7,1.2c-1.2.8-1.8,2-1.8,3.4s.2,1.5.5,2.1.9,1.1,1.5,1.6c.7.4,1.8,1,3.4,1.5,1.6.6,2.7,1.2,3.2,1.6s.8.9.8,1.5-.3,1.3-.9,1.7c-.7.4-1.7.6-2.9.6s-1.7,0-2.6-.3c-.9-.2-1.7-.5-2.5-.9l-.4-.2v2.9h.1c1.3.8,3.1,1.2,5.3,1.2s3.8-.4,5-1.3,1.8-2.2,1.8-3.8-.4-2.2-1.1-2.9c-.7-.8-2.1-1.5-4.1-2.2v-.3Z"/>
      <rect class="st0" x="270.2" y="68.7" width="8" height="2.8"/>
      <path class="st0" d="M297.2,69v5.1l-11.8-18h0c0,0-3.3,0-3.3,0v22.8h2.9v-12.9c0-1.6,0-3.4-.2-5.3l11.8,18.1h0c0,0,3.3,0,3.3,0v-22.8h-2.9v13h.2Z"/>
      <path class="st0" d="M312.5,61.2c-2.5,0-4.4.8-5.9,2.4-1.4,1.6-2.1,3.8-2.1,6.5s.3,3.4,1,4.7c.6,1.3,1.6,2.4,2.8,3.1,1.2.7,2.6,1.1,4.1,1.1,2.5,0,4.5-.8,5.9-2.4s2.1-3.8,2.1-6.5-.7-4.9-2.1-6.5-3.4-2.4-5.8-2.4ZM317.3,70.1c0,2.1-.4,3.7-1.2,4.7-.8,1-2,1.6-3.6,1.6s-2.8-.5-3.6-1.6c-.8-1.1-1.2-2.7-1.2-4.7s.4-3.7,1.2-4.7c.8-1,2-1.5,3.6-1.5s2.8.5,3.6,1.6c.8,1.1,1.2,2.6,1.2,4.7h0Z"/>
      <path class="st0" d="M332.4,61.2c-1.1,0-2.1.3-3,.9-.8.5-1.5,1.2-2,2.1l-.3-2.7h-2.6v17.2h3v-9.2c0-1.6.5-2.9,1.4-3.9.9-1.1,2-1.6,3.3-1.6s1.1,0,1.8.2h.3l.4-2.8h-.2c-.6-.2-1.3-.2-2.1-.2h0Z"/>
      <path class="st0" d="M348.6,61.6v1.9c-1.1-1.5-2.9-2.2-5-2.2s-4,.8-5.3,2.4c-1.2,1.6-1.9,3.8-1.9,6.6s.6,5,1.9,6.5,3,2.3,5.3,2.3,4-.8,5.2-2.3l.3,2h2.5v-24.2h-3v7.1h0ZM347.5,65.3c.7,1,1.1,2.6,1.1,4.9v.5c0,2-.4,3.5-1.1,4.4s-1.9,1.3-3.6,1.3-2.5-.5-3.2-1.5-1.1-2.6-1.1-4.7.4-3.6,1.1-4.7,1.8-1.6,3.2-1.6,2.8.5,3.6,1.4h0Z"/>
    </g>
  </g>
  <g>
    <path class="st1" d="M87.3,19.4C78.7,7.9,65,.5,49.5.5,23.4.5,2.2,21.6,2.2,47.8s21.2,47.3,47.3,47.3,29.2-7.4,37.8-18.9c-5.9-7.9-9.5-17.7-9.5-28.4s3.5-20.5,9.5-28.4Z"/>
    <path class="st2" d="M125.1.5c-15.5,0-29.2,7.4-37.8,18.9,5.9,7.9,9.5,17.7,9.5,28.4s-3.5,20.5-9.5,28.4c8.6,11.5,22.4,18.9,37.8,18.9,26.1,0,47.3-21.2,47.3-47.3S151.3.5,125.1.5Z"/>
    <path class="st3" d="M87.3,19.4c-5.9,7.9-9.5,17.7-9.5,28.4s3.5,20.5,9.5,28.4c5.9-7.9,9.5-17.7,9.5-28.4s-3.5-20.5-9.5-28.4Z"/>
    <path class="st0" d="M43.6,34.2h-11.3v-6.2h30.6v6.2h-11.3v33.3h-7.9v-33.3h-.1Z"/>
    <path class="st0" d="M111.7,28h9.7l15.1,29.6h.1v-29.6h7.6v39.5h-9.7l-15.1-29.6h0v29.6h-7.6V28h0Z"/>
  </g>
</svg>