<?xml version="1.0" encoding="UTF-8"?>
<svg id="Layer_1" xmlns="http://www.w3.org/2000/svg" version="1.1" viewBox="0 0 223.9 122.2">
  <!-- Generator: Adobe Illustrator 29.0.0, SVG Export Plug-In . SVG Version: 2.1.0 Build 186)  -->
  <defs>
    <style>
      .st0 {
        fill: #fff;
      }
    </style>
  </defs>
  <path class="st0" d="M1.1,118.6c7-2,7.8-3.3,8.2-7.6.2-2.1,1-11.5,1-30.5v-13.6c-.1-7.9-.6-14.4-.9-15.6-.2-1.4-.6-1.9-4.7-2-.4,0-1.3-.4-1.8-2.5,3.4-3,8.7-6.7,12.2-9.1,1.3-.9,1.6-.9,2.3-.8.4.1.4.2.4.8v7.8c5.9-2.3,13.5-5.8,17.5-5.8s9,1.8,13.1,5.4c5.4,4.9,7.1,11.6,7.1,16.9s-3.7,14.1-7.9,17.9c-2,1.9-8.7,5.9-15.4,7.9-1.2.5-2.6.6-3.6.6-3.9,0-7.4-.8-9.3-1.4-.2-.1-.9.5-1,1.3-.2,1.5-.4,10.6-.4,14.1,0,13.2.6,13.5,2.8,13.6,2.3.1,3.6.2,7,.2s.9.2.8.8l-.6,2c-.2,1.1-.4,1.3-1.1,1.3-5.3.4-19.8,1.1-24.2,1.3-.2,0-.4-.1-.5-.4l-.9-2.6M47.6,65.7c0-5.3-1.3-9.6-5-13.7-3.5-3.8-8.2-6-13.9-6s-8.2,1.8-10.7,3.9c-.2.2-.2,1-.2,2.6v7.9c0,6.7.4,11.6,1,16.8.1.9.4,1.4,1.5,2.1,3.4,2.3,7.7,3.3,12.6,3.3s6-.9,8.7-2.8c3.2-2.3,6-6.8,6-14h0c0-.1,0-.1,0-.1Z"/>
  <path class="st0" d="M73.1,87.5c-2.9,0-5.5.1-7.7.4-2,.1-3.3.4-3.5.4-.5,0-.8-.1-.9-.6-.2-.9-.2-2.1-.2-2.8s.2-.5.5-.5c4.5-.5,5.5-.9,6.2-4.2.5-2,.9-10.6.9-18.3s0-10.3-.4-12.8c-.1-.6-.8-.9-6.7-1.8-.5-.1-.6-.4-.4-1,1-2.1,1.1-2.4,1.6-2.5,4.9-1.6,8.4-3.3,13.7-5.2.6-.1.8,0,.8.8-.5,8.3-1.1,25.2-1.1,31.5s0,8.6.1,9.8c.2,1.8.5,2.5,1.6,2.4,3.9-.5,4.9-.5,5.3-.4.4,0,1.1.8,1,1.1l-.4,3c-.1.6-.4.6-.9.6h-9.6M74.4,11.9c2.8,0,4.7,2.3,4.7,5s-2.7,6-5.6,6-4.9-2.1-4.9-5,3-6.1,5.7-6.1h.1Z"/>
  <path class="st0" d="M103,32.1s.1.1.1.5c0,1.4-.4,7.8-.4,8.9,5.5,0,12.5-.8,17.2-.8s1.4.4,1.4,1.3c-.1,1.3-.4,2-.9,4-.1,1-.8,1.1-1.6,1.1-3.9.1-9.3.1-15.9.4-.2,0-.5.2-.5,1.6-.4,4.7-.6,18.1-.6,25.2s3.5,8.2,9.2,8.2,4.8-.8,7.8-2.8c.5-.4.8-.4.9.1.1.9.2,1.5.2,2.3s-.4,1-.9,1.3c-4.2,2.5-9.1,5.4-14.7,5.4s-6.3-.9-8.8-3.8c-1.6-1.9-2-4-1.8-9.1.2-5.7.5-23,.8-26.6.1-.8-.8-1.8-1.3-1.8h-5c-.2,0-1.1-.9-.8-1.1,4.9-4.3,12.3-11.7,14.3-13.9.5-.5.8-.6,1-.6h.1"/>
  <path class="st0" d="M152.5,39.1c4.2,0,9.1,1.5,11.6,4.2.4.4.6.8.6,1.4,0,1.6-2.4,3.4-3.6,4.3-1.1.5-2.3.8-2.8.5-.6-.2-1.3-.6-2.5-1.4-2.8-1.6-6.3-2.9-8.9-2.9-4.1,0-7.2,1.6-8.9,3.3-3.4,3.4-4.4,7.8-4.4,14.1s2.3,12.2,3.8,14c3.8,4.5,8.8,5.9,11.8,5.9s9.6-2.9,12.2-4.8c.1-.1,1.4.5,1.4.9,0,.8-.5,3-1.5,3.7-1.4,1-5.8,3.5-10.1,5.2-2.4.9-5.2,1.3-6.6,1.3-4.2,0-9.6-1.9-13.1-4.9-2.8-2-6.7-7.9-6.7-15.4,0-12.6,5.2-17,7.2-19,2.5-2.6,8.1-6,10.7-7.4,3-1.4,6.2-2.8,9.7-2.8h.1"/>
  <path class="st0" d="M167.3,86.4c-.2-.8-.2-1,.2-1.1,6.4-2.9,6.8-3.3,6.8-14.9V20.6c0-7.4-.2-7.6-4.4-11.3-.5-.4-.4-.9.1-1.4,1.5-1.3,8.2-5.2,10.7-6.7.5-.2,1.1-.6,1.5-.6,1,0,1,1,1,1.6,0,8.2-.2,16.1-.2,23.5v20c0,.1.4.8.8.6,2.4-1.1,9.6-4.4,13-5.5,2.5-.8,4.5-1.3,6.8-1.3,11.1,0,13.1,9.8,13.1,19.4s-.2,11.1-.4,19.5c0,4,.5,4.3,5.3,5.8,1,.2,1.3.2,1.3.6v1.9c0,.8-.1.9-1,.9h-8.2c-5.9,0-10.9.6-11.7.8-.5,0-.6-.1-.8-1.6-.3-1.4-.1-1.6.2-1.9.4-.2,2.3-.9,3.5-1.5,2.1-1,2.6-1.8,3-4.8.6-5.3.5-8.8.5-13.5,0-11.5-2.1-14.6-4.8-16.8-2.9-2.1-5.2-2.4-7.6-2.4-3.6,0-8.4,1.8-12,3.8-1,.5-1.5,1.1-1.5,3.5v13.2c0,6.3.4,9.4.8,12.8.4,2.9.9,3.5,6.4,4.2.5-.1.6.2.9,3.3,0,.5-.1.6-.6.6-9.6,0-15.9.1-20.9.9-.8.1-1,.1-1.1-.2l-.8-1.8"/>
</svg>