<?xml version="1.0" encoding="utf-8"?>
<!-- Generator: Adobe Illustrator 16.0.0, SVG Export Plug-In . SVG Version: 6.00 Build 0)  -->
<!DOCTYPE svg PUBLIC "-//W3C//DTD SVG 1.1//EN" "http://www.w3.org/Graphics/SVG/1.1/DTD/svg11.dtd">
<svg version="1.1" id="Layer_1" xmlns="http://www.w3.org/2000/svg" xmlns:xlink="http://www.w3.org/1999/xlink" x="0px" y="0px"
	 width="392.345px" height="86.948px" viewBox="0 0 392.345 86.948" enable-background="new 0 0 392.345 86.948"
	 xml:space="preserve">
<g>
	<g>
		<path fill="#FFFFFF" d="M188.673,44.048c0-1.979-0.034-3.682-0.138-5.24h2.675l0.104,3.297h0.14
			c0.762-2.258,2.603-3.68,4.652-3.68c0.347,0,0.592,0.037,0.869,0.105v2.881c-0.314-0.07-0.626-0.105-1.042-0.105
			c-2.153,0-3.681,1.635-4.1,3.926c-0.069,0.418-0.138,0.9-0.138,1.42v8.963h-3.022V44.048z"/>
		<path fill="#FFFFFF" d="M209.336,55.614l-0.246-2.121h-0.104c-0.938,1.322-2.742,2.5-5.138,2.5c-3.404,0-5.143-2.395-5.143-4.824
			c0-4.066,3.612-6.289,10.107-6.254v-0.348c0-1.385-0.382-3.883-3.819-3.883c-1.564,0-3.195,0.482-4.376,1.246l-0.695-2.016
			c1.388-0.9,3.402-1.49,5.521-1.49c5.141,0,6.391,3.506,6.391,6.879v6.279c0,1.461,0.069,2.887,0.277,4.031H209.336z
			 M208.882,47.034c-3.334-0.07-7.118,0.525-7.118,3.787c0,1.979,1.319,2.916,2.881,2.916c2.188,0,3.58-1.385,4.063-2.812
			c0.105-0.311,0.174-0.656,0.174-0.969V47.034z"/>
		<path fill="#FFFFFF" d="M216.936,43.356c0-1.738-0.034-3.162-0.138-4.549h2.711l0.173,2.777h0.068
			c0.834-1.602,2.777-3.16,5.557-3.16c2.328,0,5.938,1.385,5.938,7.154v10.035h-3.057v-9.689c0-2.709-1.008-4.965-3.889-4.965
			c-2.015,0-3.576,1.42-4.099,3.123c-0.139,0.383-0.209,0.902-0.209,1.428v10.104h-3.057V43.356z"/>
		<path fill="#FFFFFF" d="M235.965,52.491c0.902,0.588,2.5,1.211,4.029,1.211c2.223,0,3.262-1.109,3.262-2.5
			c0-1.453-0.865-2.256-3.122-3.088c-3.023-1.08-4.445-2.742-4.445-4.758c0-2.709,2.187-4.932,5.798-4.932
			c1.7,0,3.196,0.486,4.135,1.039l-0.766,2.223c-0.661-0.414-1.876-0.969-3.438-0.969c-1.808,0-2.814,1.039-2.814,2.291
			c0,1.387,1.007,2.012,3.195,2.848c2.918,1.107,4.411,2.57,4.411,5.068c0,2.951-2.292,5.035-6.288,5.035
			c-1.838,0-3.541-0.451-4.722-1.145L235.965,52.491z"/>
		<path fill="#FFFFFF" d="M257.389,45.093v2.26h-8.578v-2.26H257.389z"/>
		<path fill="#FFFFFF" d="M261.24,55.614V32.208h3.3l7.501,11.84c1.739,2.742,3.093,5.209,4.204,7.605l0.068-0.037
			c-0.276-3.123-0.347-5.967-0.347-9.617v-9.791h2.848v23.406h-3.058l-7.43-11.879c-1.634-2.602-3.195-5.273-4.376-7.814
			l-0.104,0.035c0.173,2.955,0.241,5.768,0.241,9.656v10.002H261.24z"/>
		<path fill="#FFFFFF" d="M299.367,47.069c0,6.217-4.308,8.924-8.371,8.924c-4.551,0-8.058-3.33-8.058-8.641
			c0-5.629,3.685-8.928,8.337-8.928C296.102,38.425,299.367,41.931,299.367,47.069z M286.031,47.243
			c0,3.682,2.117,6.459,5.105,6.459c2.915,0,5.104-2.742,5.104-6.531c0-2.844-1.423-6.453-5.034-6.453
			C287.593,40.718,286.031,44.048,286.031,47.243z"/>
		<path fill="#FFFFFF" d="M303.391,44.048c0-1.979-0.034-3.682-0.138-5.24h2.675l0.104,3.297h0.14
			c0.762-2.258,2.603-3.68,4.652-3.68c0.347,0,0.589,0.037,0.87,0.105v2.881c-0.315-0.07-0.627-0.105-1.043-0.105
			c-2.153,0-3.684,1.635-4.1,3.926c-0.068,0.418-0.138,0.9-0.138,1.42v8.963h-3.022V44.048z"/>
		<path fill="#FFFFFF" d="M319.435,33.979v4.828h4.376v2.326h-4.376v9.062c0,2.084,0.589,3.264,2.292,3.264
			c0.797,0,1.389-0.104,1.77-0.209l0.139,2.291c-0.589,0.244-1.527,0.418-2.708,0.418c-1.423,0-2.569-0.451-3.299-1.283
			c-0.868-0.906-1.181-2.396-1.181-4.375v-9.168h-2.604v-2.326h2.604v-4.031L319.435,33.979z"/>
		<path fill="#FFFFFF" d="M327.416,30.956h3.058v10.49h0.069c0.487-0.873,1.249-1.637,2.188-2.156
			c0.904-0.52,1.979-0.865,3.127-0.865c2.257,0,5.867,1.385,5.867,7.188v10.002h-3.056V45.96c0-2.707-1.005-5-3.889-5
			c-1.98,0-3.542,1.385-4.1,3.055c-0.173,0.414-0.207,0.865-0.207,1.461v10.139h-3.058V30.956z"/>
		<path fill="#FFFFFF" d="M348.563,47.767c0.069,4.133,2.708,5.832,5.766,5.832c2.188,0,3.507-0.381,4.652-0.867l0.522,2.189
			c-1.076,0.484-2.918,1.039-5.591,1.039c-5.177,0-8.268-3.4-8.268-8.471c0-5.072,2.987-9.064,7.883-9.064
			c5.487,0,6.949,4.828,6.949,7.918c0,0.621-0.072,1.111-0.107,1.424H348.563z M357.524,45.579c0.033-1.945-0.8-4.965-4.238-4.965
			c-3.092,0-4.445,2.846-4.688,4.965H357.524z"/>
		<path fill="#FFFFFF" d="M364.429,44.048c0-1.979-0.034-3.682-0.139-5.24h2.676l0.104,3.297h0.14
			c0.762-2.258,2.603-3.68,4.652-3.68c0.347,0,0.592,0.037,0.87,0.105v2.881c-0.315-0.07-0.627-0.105-1.043-0.105
			c-2.153,0-3.681,1.635-4.1,3.926c-0.068,0.418-0.138,0.9-0.138,1.42v8.963h-3.022V44.048z"/>
		<path fill="#FFFFFF" d="M376.094,43.356c0-1.738-0.035-3.162-0.139-4.549h2.711l0.173,2.777h0.07
			c0.833-1.602,2.776-3.16,5.557-3.16c2.326,0,5.937,1.385,5.937,7.154v10.035h-3.057v-9.689c0-2.709-1.008-4.965-3.888-4.965
			c-2.016,0-3.577,1.42-4.1,3.123c-0.139,0.383-0.208,0.902-0.208,1.428v10.104h-3.057V43.356z"/>
	</g>
</g>
<g>
	<path fill="#F68A33" d="M79.418,17.649C71.562,7.196,59.062,0.431,44.983,0.431c-23.775,0-43.041,19.27-43.041,43.041
		c0,23.77,19.266,43.047,43.041,43.047c14.079,0,26.578-6.766,34.435-17.221c-5.408-7.189-8.608-16.133-8.608-25.826
		S74.01,24.843,79.418,17.649z"/>
	<path fill="#FDB913" d="M113.854,0.431c-14.086,0-26.583,6.766-34.436,17.219c5.405,7.193,8.609,16.129,8.609,25.822
		s-3.204,18.637-8.609,25.826c7.853,10.455,20.35,17.221,34.436,17.221c23.771,0,43.042-19.277,43.042-43.047
		C156.896,19.7,137.625,0.431,113.854,0.431z"/>
	<path fill="#F26531" d="M79.418,17.649c-5.408,7.193-8.608,16.129-8.608,25.822s3.2,18.637,8.608,25.826
		c5.405-7.189,8.609-16.133,8.609-25.826S84.823,24.843,79.418,17.649z"/>
	<path fill="#FFFFFF" d="M39.648,31.147H29.337v-5.668h27.845v5.668H46.869v30.32h-7.221V31.147z"/>
	<path fill="#FFFFFF" d="M101.634,25.479h8.868l13.72,26.914h0.1V25.479h6.908v35.988h-8.814l-13.767-26.914h-0.102v26.914h-6.913
		V25.479z"/>
</g>
<polygon fill="#FFFFFF" points="170.101,34.776 170.101,32.208 187.567,32.208 187.567,34.776 180.411,34.776 180.411,55.614 
	177.354,55.614 177.354,34.776 "/>
</svg>
