<?xml version="1.0" encoding="utf-8"?>
<!-- Generator: Adobe Illustrator 16.0.0, SVG Export Plug-In . SVG Version: 6.00 Build 0)  -->
<!DOCTYPE svg PUBLIC "-//W3C//DTD SVG 1.1//EN" "http://www.w3.org/Graphics/SVG/1.1/DTD/svg11.dtd">
<svg version="1.1" id="Layer_1" xmlns="http://www.w3.org/2000/svg" xmlns:xlink="http://www.w3.org/1999/xlink" x="0px" y="0px"
	 width="448.667px" height="95.501px" viewBox="0 0 448.667 95.501" enable-background="new 0 0 448.667 95.501"
	 xml:space="preserve">
<g>
	<g>
		<path fill="#717073" d="M196.94,41.026h-2.59V21.052h-7.055V18.75h16.701v2.303h-7.057V41.026z"/>
		<path fill="#717073" d="M214.741,24.026c0.739,0,1.406,0.058,1.996,0.183l-0.35,2.346c-0.691-0.154-1.301-0.23-1.828-0.23
			c-1.354,0-2.506,0.551-3.469,1.645c-0.959,1.1-1.438,2.466-1.438,4.102v8.956h-2.528V24.328h2.087l0.288,3.094h0.125
			c0.618-1.088,1.367-1.923,2.24-2.514C212.737,24.318,213.696,24.026,214.741,24.026z"/>
		<path fill="#717073" d="M230.284,41.026l-0.502-2.374h-0.121c-0.836,1.045-1.664,1.756-2.49,2.125
			c-0.83,0.369-1.864,0.557-3.104,0.557c-1.655,0-2.953-0.428-3.891-1.281c-0.94-0.854-1.41-2.068-1.41-3.641
			c0-3.373,2.695-5.143,8.09-5.306l2.834-0.087v-1.035c0-1.314-0.279-2.279-0.846-2.907c-0.562-0.624-1.465-0.936-2.705-0.936
			c-1.392,0-2.965,0.427-4.721,1.28l-0.777-1.933c0.82-0.451,1.723-0.802,2.705-1.056c0.979-0.254,1.96-0.379,2.945-0.379
			c1.99,0,3.469,0.441,4.428,1.324c0.959,0.887,1.439,2.303,1.439,4.25v11.397H230.284z M224.57,39.246
			c1.573,0,2.812-0.432,3.712-1.295c0.898-0.863,1.35-2.072,1.35-3.626v-1.511l-2.531,0.109c-2.012,0.072-3.461,0.385-4.348,0.936
			c-0.891,0.553-1.334,1.416-1.334,2.581c0,0.916,0.275,1.612,0.83,2.087C222.8,39.006,223.577,39.246,224.57,39.246z"/>
		<path fill="#717073" d="M248.954,41.026V30.223c0-1.357-0.311-2.374-0.932-3.046c-0.619-0.672-1.59-1.008-2.912-1.008
			c-1.746,0-3.027,0.476-3.838,1.42c-0.812,0.945-1.217,2.504-1.217,4.678v8.759h-2.529V24.328h2.057l0.41,2.289h0.121
			c0.521-0.826,1.246-1.464,2.18-1.914c0.934-0.451,1.977-0.677,3.123-0.677c2.01,0,3.525,0.484,4.541,1.453
			c1.016,0.97,1.523,2.523,1.523,4.653v10.894H248.954z"/>
		<path fill="#717073" d="M267.606,36.468c0,1.56-0.578,2.759-1.74,3.598c-1.154,0.845-2.781,1.268-4.873,1.268
			c-2.217,0-3.943-0.352-5.18-1.051v-2.352c0.803,0.408,1.664,0.73,2.582,0.965s1.807,0.35,2.658,0.35
			c1.32,0,2.338-0.211,3.049-0.633c0.709-0.422,1.066-1.064,1.066-1.928c0-0.648-0.283-1.205-0.848-1.67
			c-0.561-0.461-1.664-1.008-3.297-1.636c-1.557-0.58-2.66-1.084-3.316-1.516c-0.652-0.432-1.141-0.926-1.461-1.473
			s-0.482-1.204-0.482-1.967c0-1.357,0.557-2.433,1.664-3.219c1.105-0.786,2.623-1.18,4.553-1.18c1.799,0,3.557,0.364,5.273,1.093
			l-0.898,2.059c-1.674-0.691-3.195-1.036-4.555-1.036c-1.203,0-2.104,0.187-2.713,0.565c-0.609,0.375-0.914,0.893-0.914,1.55
			c0,0.451,0.113,0.83,0.344,1.146c0.225,0.317,0.594,0.614,1.104,0.897c0.508,0.287,1.484,0.695,2.926,1.232
			c1.98,0.725,3.318,1.449,4.016,2.183C267.259,34.445,267.606,35.366,267.606,36.468z"/>
		<path fill="#717073" d="M270.474,33.821v-2.317h7.48v2.317H270.474z"/>
		<path fill="#717073" d="M299.853,41.026h-2.955l-12.174-18.693h-0.121c0.16,2.192,0.242,4.206,0.242,6.034v12.659h-2.393V18.75
			h2.926l12.143,18.621h0.123c-0.021-0.273-0.064-1.156-0.137-2.643c-0.072-1.487-0.096-2.553-0.076-3.195V18.75h2.422V41.026z"/>
		<path fill="#717073" d="M320.167,32.666c0,2.719-0.686,4.844-2.057,6.375c-1.373,1.525-3.268,2.293-5.684,2.293
			c-1.492,0-2.816-0.352-3.979-1.051c-1.156-0.705-2.051-1.708-2.682-3.018c-0.629-1.31-0.941-2.845-0.941-4.6
			c0-2.725,0.678-4.846,2.041-6.366c1.361-1.516,3.25-2.273,5.666-2.273c2.336,0,4.193,0.776,5.572,2.326
			C319.479,27.912,320.167,30.012,320.167,32.666z M307.446,32.666c0,2.129,0.426,3.756,1.277,4.873
			c0.855,1.117,2.109,1.674,3.764,1.674s2.914-0.557,3.771-1.664c0.857-1.113,1.289-2.744,1.289-4.883
			c0-2.125-0.432-3.737-1.289-4.841c-0.857-1.103-2.125-1.655-3.801-1.655c-1.658,0-2.906,0.547-3.75,1.631
			C307.866,28.89,307.446,30.511,307.446,32.666z"/>
		<path fill="#717073" d="M332.372,24.026c0.742,0,1.408,0.058,2,0.183l-0.354,2.346c-0.691-0.154-1.301-0.23-1.828-0.23
			c-1.354,0-2.506,0.551-3.465,1.645c-0.963,1.1-1.439,2.466-1.439,4.102v8.956h-2.531V24.328h2.088l0.289,3.094h0.121
			c0.619-1.088,1.367-1.923,2.24-2.514C330.368,24.318,331.325,24.026,332.372,24.026z"/>
		<path fill="#717073" d="M343.044,39.246c0.445,0,0.877-0.033,1.295-0.1c0.416-0.068,0.746-0.135,0.988-0.207v1.938
			c-0.273,0.131-0.676,0.24-1.209,0.326c-0.535,0.087-1.012,0.131-1.441,0.131c-3.229,0-4.844-1.703-4.844-5.104v-9.935h-2.393
			v-1.219l2.393-1.05l1.066-3.569h1.463v3.871h4.846v1.967h-4.846v9.829c0,1.003,0.24,1.774,0.715,2.317
			C341.556,38.978,342.208,39.246,343.044,39.246z"/>
		<path fill="#717073" d="M360.251,41.026V30.223c0-1.357-0.312-2.374-0.932-3.046s-1.592-1.008-2.912-1.008
			c-1.754,0-3.039,0.48-3.848,1.435c-0.805,0.954-1.207,2.519-1.207,4.691v8.73h-2.533V17.32h2.533v7.176
			c0,0.863-0.043,1.578-0.123,2.149h0.15c0.496-0.802,1.205-1.435,2.125-1.896c0.922-0.465,1.967-0.695,3.148-0.695
			c2.039,0,3.572,0.484,4.594,1.453c1.02,0.975,1.531,2.514,1.531,4.625v10.894H360.251z"/>
		<path fill="#717073" d="M375.183,41.333c-2.467,0-4.412-0.754-5.842-2.256c-1.428-1.506-2.141-3.592-2.141-6.264
			c0-2.691,0.662-4.831,1.986-6.414c1.326-1.582,3.107-2.374,5.342-2.374c2.094,0,3.748,0.686,4.967,2.062
			c1.219,1.376,1.828,3.19,1.828,5.444v1.602h-11.504c0.051,1.963,0.547,3.449,1.486,4.467c0.941,1.012,2.262,1.521,3.969,1.521
			c1.799,0,3.576-0.374,5.334-1.128v2.255c-0.893,0.389-1.742,0.662-2.537,0.83C377.274,41.247,376.31,41.333,375.183,41.333z
			 M374.497,26.141c-1.34,0-2.408,0.437-3.205,1.31c-0.801,0.873-1.268,2.082-1.41,3.627h8.73c0-1.594-0.357-2.816-1.068-3.666
			C376.833,26.563,375.815,26.141,374.497,26.141z"/>
		<path fill="#717073" d="M393.411,24.026c0.738,0,1.406,0.058,1.996,0.183l-0.352,2.346c-0.691-0.154-1.299-0.23-1.828-0.23
			c-1.352,0-2.508,0.551-3.467,1.645c-0.959,1.1-1.439,2.466-1.439,4.102v8.956h-2.527V24.328h2.086l0.289,3.094h0.121
			c0.619-1.088,1.367-1.923,2.24-2.514C391.405,24.318,392.362,24.026,393.411,24.026z"/>
		<path fill="#717073" d="M410.114,41.026V30.223c0-1.357-0.312-2.374-0.932-3.046s-1.592-1.008-2.912-1.008
			c-1.746,0-3.025,0.476-3.836,1.42c-0.816,0.945-1.219,2.504-1.219,4.678v8.759h-2.533V24.328h2.059l0.412,2.289h0.119
			c0.518-0.826,1.244-1.464,2.182-1.914c0.932-0.451,1.973-0.677,3.125-0.677c2.01,0,3.523,0.484,4.537,1.453
			c1.018,0.97,1.525,2.523,1.525,4.653v10.894H410.114z"/>
		<path fill="#F68A33" d="M436.567,16.724l-9.041,24.302h-3.689l9.059-24.302H436.567z"/>
		<path fill="#FDB913" d="M446.446,16.724l-9.043,24.302h-3.689l9.059-24.302H446.446z"/>
		<path fill="#717073" d="M196.94,78.47h-2.59V58.496h-7.055v-2.303h16.701v2.303h-7.057V78.47z"/>
		<path fill="#717073" d="M214.741,61.466c0.739,0,1.406,0.062,1.996,0.186l-0.35,2.346c-0.691-0.152-1.301-0.23-1.828-0.23
			c-1.354,0-2.506,0.553-3.469,1.646c-0.959,1.098-1.438,2.465-1.438,4.102v8.955h-2.528V61.773h2.087l0.288,3.094h0.125
			c0.618-1.09,1.367-1.924,2.24-2.514S213.696,61.466,214.741,61.466z"/>
		<path fill="#717073" d="M230.284,78.47l-0.502-2.375h-0.121c-0.836,1.047-1.664,1.752-2.49,2.125
			c-0.83,0.371-1.864,0.557-3.104,0.557c-1.655,0-2.953-0.428-3.891-1.279c-0.94-0.855-1.41-2.068-1.41-3.643
			c0-3.371,2.695-5.143,8.09-5.305l2.834-0.092v-1.035c0-1.311-0.279-2.279-0.846-2.902c-0.562-0.623-1.465-0.936-2.705-0.936
			c-1.392,0-2.965,0.428-4.721,1.281l-0.777-1.939c0.82-0.445,1.723-0.795,2.705-1.049c0.979-0.256,1.96-0.379,2.945-0.379
			c1.99,0,3.469,0.439,4.428,1.322s1.439,2.305,1.439,4.25V78.47H230.284z M224.57,76.691c1.573,0,2.812-0.432,3.712-1.295
			c0.898-0.863,1.35-2.072,1.35-3.627v-1.512l-2.531,0.105c-2.012,0.072-3.461,0.385-4.348,0.941
			c-0.891,0.551-1.334,1.414-1.334,2.58c0,0.916,0.275,1.611,0.83,2.086C222.8,76.451,223.577,76.691,224.57,76.691z"/>
		<path fill="#717073" d="M248.954,78.47V67.667c0-1.357-0.311-2.375-0.932-3.045c-0.619-0.672-1.59-1.008-2.912-1.008
			c-1.746,0-3.027,0.475-3.838,1.42c-0.812,0.943-1.217,2.504-1.217,4.676v8.76h-2.529V61.773h2.057l0.41,2.287h0.121
			c0.521-0.824,1.246-1.463,2.18-1.914c0.934-0.455,1.977-0.68,3.123-0.68c2.01,0,3.525,0.488,4.541,1.457s1.523,2.52,1.523,4.652
			V78.47H248.954z"/>
		<path fill="#717073" d="M267.606,73.914c0,1.559-0.578,2.752-1.74,3.598c-1.154,0.844-2.781,1.266-4.873,1.266
			c-2.217,0-3.943-0.35-5.18-1.051v-2.35c0.803,0.408,1.664,0.729,2.582,0.959c0.918,0.236,1.807,0.355,2.658,0.355
			c1.32,0,2.338-0.211,3.049-0.633c0.709-0.424,1.066-1.064,1.066-1.93c0-0.646-0.283-1.203-0.848-1.668
			c-0.561-0.461-1.664-1.008-3.297-1.641c-1.557-0.576-2.66-1.08-3.316-1.512c-0.652-0.432-1.141-0.926-1.461-1.473
			s-0.482-1.205-0.482-1.967c0-1.357,0.557-2.432,1.664-3.223c1.105-0.787,2.623-1.18,4.553-1.18c1.799,0,3.557,0.367,5.273,1.098
			l-0.898,2.059c-1.674-0.691-3.195-1.037-4.555-1.037c-1.203,0-2.104,0.188-2.713,0.561c-0.609,0.379-0.914,0.898-0.914,1.555
			c0,0.451,0.113,0.83,0.344,1.146c0.225,0.312,0.594,0.615,1.104,0.896c0.508,0.283,1.484,0.695,2.926,1.234
			c1.98,0.723,3.318,1.447,4.016,2.182C267.259,71.888,267.606,72.81,267.606,73.914z"/>
		<path fill="#717073" d="M270.474,71.265v-2.316h7.48v2.316H270.474z"/>
		<path fill="#717073" d="M299.853,78.47h-2.955l-12.174-18.693h-0.121c0.16,2.191,0.242,4.201,0.242,6.033v12.66h-2.393V56.193
			h2.926l12.143,18.621h0.123c-0.021-0.273-0.064-1.154-0.137-2.643c-0.072-1.486-0.096-2.551-0.076-3.193V56.193h2.422V78.47z"/>
		<path fill="#717073" d="M320.167,70.109c0,2.721-0.686,4.846-2.057,6.375c-1.373,1.525-3.268,2.293-5.684,2.293
			c-1.492,0-2.816-0.35-3.979-1.051c-1.156-0.705-2.051-1.707-2.682-3.018c-0.629-1.309-0.941-2.844-0.941-4.6
			c0-2.725,0.678-4.844,2.041-6.365c1.361-1.516,3.25-2.277,5.666-2.277c2.336,0,4.193,0.781,5.572,2.33
			C319.479,65.355,320.167,67.457,320.167,70.109z M307.446,70.109c0,2.131,0.426,3.756,1.277,4.873
			c0.855,1.119,2.109,1.676,3.764,1.676s2.914-0.557,3.771-1.67c0.857-1.107,1.289-2.74,1.289-4.879c0-2.125-0.432-3.736-1.289-4.84
			s-2.125-1.654-3.801-1.654c-1.658,0-2.906,0.547-3.75,1.631C307.866,66.333,307.446,67.955,307.446,70.109z"/>
		<path fill="#717073" d="M332.372,61.466c0.742,0,1.408,0.062,2,0.186l-0.354,2.346c-0.691-0.152-1.301-0.23-1.828-0.23
			c-1.354,0-2.506,0.553-3.465,1.646c-0.963,1.098-1.439,2.465-1.439,4.102v8.955h-2.531V61.773h2.088l0.289,3.094h0.121
			c0.619-1.09,1.367-1.924,2.24-2.514C330.368,61.763,331.325,61.466,332.372,61.466z"/>
		<path fill="#717073" d="M349.017,76.23h-0.141c-1.164,1.697-2.91,2.547-5.238,2.547c-2.184,0-3.883-0.748-5.096-2.24
			c-1.217-1.492-1.82-3.617-1.82-6.369c0-2.754,0.609-4.889,1.826-6.414c1.219-1.525,2.914-2.287,5.09-2.287
			c2.266,0,4.002,0.824,5.211,2.469h0.195l-0.105-1.203l-0.062-1.176v-6.793h2.533V78.47h-2.057L349.017,76.23z M343.96,76.658
			c1.723,0,2.975-0.471,3.752-1.41c0.779-0.941,1.164-2.453,1.164-4.549v-0.531c0-2.365-0.393-4.055-1.18-5.066
			c-0.785-1.012-2.043-1.516-3.77-1.516c-1.482,0-2.619,0.576-3.406,1.727c-0.787,1.156-1.18,2.783-1.18,4.885
			c0,2.133,0.391,3.746,1.172,4.834C341.296,76.115,342.444,76.658,343.96,76.658z"/>
	</g>
	<g>
		<path fill="#F68A33" d="M87.322,19.382C78.697,7.904,64.966,0.473,49.499,0.473c-26.109,0-47.278,21.169-47.278,47.278
			S23.39,95.029,49.499,95.029c15.467,0,29.198-7.426,37.823-18.91c-5.937-7.898-9.454-17.723-9.454-28.367
			S81.386,27.288,87.322,19.382z"/>
		<path fill="#FDB913" d="M125.146,0.473c-15.465,0-29.198,7.431-37.823,18.909c5.934,7.905,9.454,17.725,9.454,28.369
			s-3.521,20.469-9.454,28.367c8.625,11.484,22.358,18.91,37.823,18.91c26.109,0,47.278-21.168,47.278-47.277
			S151.255,0.473,125.146,0.473z"/>
		<path fill="#F26531" d="M87.322,19.382c-5.937,7.905-9.454,17.725-9.454,28.369s3.518,20.469,9.454,28.367
			c5.934-7.898,9.454-17.723,9.454-28.367S93.256,27.288,87.322,19.382z"/>
		<path fill="#FFFFFF" d="M43.647,34.214H32.316v-6.231h30.585v6.231H51.576v33.305h-7.929V34.214z"/>
		<path fill="#FFFFFF" d="M111.724,27.983h9.742l15.067,29.569h0.112V27.983h7.59v39.536h-9.686l-15.122-29.563h-0.11v29.563h-7.594
			V27.983z"/>
	</g>
</g>
</svg>
